<svg width="41" height="41" viewBox="0 0 41 41" fill="none" xmlns="http://www.w3.org/2000/svg">
<g clip-path="url(#clip0_201_4287)">
<path fill-rule="evenodd" clip-rule="evenodd" d="M6.83333 0H11.9583C13.7706 0 15.5087 0.719939 16.7902 2.00144C18.0717 3.28294 18.7917 5.02102 18.7917 6.83333V11.9583C18.7917 13.7706 18.0717 15.5087 16.7902 16.7902C15.5087 18.0717 13.7706 18.7917 11.9583 18.7917H6.83333C5.02102 18.7917 3.28294 18.0717 2.00144 16.7902C0.719939 15.5087 0 13.7706 0 11.9583V6.83333C0 5.02102 0.719939 3.28294 2.00144 2.00144C3.28294 0.719939 5.02102 0 6.83333 0ZM14.3743 14.3743C15.015 13.7335 15.375 12.8645 15.375 11.9583V6.83333C15.375 5.92718 15.015 5.05813 14.3743 4.41738C13.7335 3.77664 12.8645 3.41667 11.9583 3.41667H6.83333C5.92718 3.41667 5.05813 3.77664 4.41738 4.41738C3.77664 5.05813 3.41667 5.92718 3.41667 6.83333V11.9583C3.41667 12.8645 3.77664 13.7335 4.41738 14.3743C5.05813 15.015 5.92718 15.375 6.83333 15.375H11.9583C12.8645 15.375 13.7335 15.015 14.3743 14.3743ZM29.0417 0H34.1667C35.979 0 37.7171 0.719939 38.9986 2.00144C40.2801 3.28294 41 5.02102 41 6.83333V11.9583C41 13.7706 40.2801 15.5087 38.9986 16.7902C37.7171 18.0717 35.979 18.7917 34.1667 18.7917H29.0417C27.2294 18.7917 25.4913 18.0717 24.2098 16.7902C22.9283 15.5087 22.2083 13.7706 22.2083 11.9583V6.83333C22.2083 5.02102 22.9283 3.28294 24.2098 2.00144C25.4913 0.719939 27.2294 0 29.0417 0ZM36.5826 14.3743C37.2234 13.7335 37.5833 12.8645 37.5833 11.9583V6.83333C37.5833 5.92718 37.2234 5.05813 36.5826 4.41738C35.9419 3.77664 35.0728 3.41667 34.1667 3.41667H29.0417C28.1355 3.41667 27.2665 3.77664 26.6257 4.41738C25.985 5.05813 25.625 5.92718 25.625 6.83333V11.9583C25.625 12.8645 25.985 13.7335 26.6257 14.3743C27.2665 15.015 28.1355 15.375 29.0417 15.375H34.1667C35.0728 15.375 35.9419 15.015 36.5826 14.3743ZM11.9583 22.2083H6.83333C5.02102 22.2083 3.28294 22.9283 2.00144 24.2098C0.719939 25.4913 0 27.2294 0 29.0417V34.1667C0 35.979 0.719939 37.7171 2.00144 38.9986C3.28294 40.2801 5.02102 41 6.83333 41H11.9583C13.7706 41 15.5087 40.2801 16.7902 38.9986C18.0717 37.7171 18.7917 35.979 18.7917 34.1667V29.0417C18.7917 27.2294 18.0717 25.4913 16.7902 24.2098C15.5087 22.9283 13.7706 22.2083 11.9583 22.2083ZM15.375 34.1667C15.375 35.0728 15.015 35.9419 14.3743 36.5826C13.7335 37.2234 12.8645 37.5833 11.9583 37.5833H6.83333C5.92718 37.5833 5.05813 37.2234 4.41738 36.5826C3.77664 35.9419 3.41667 35.0728 3.41667 34.1667V29.0417C3.41667 28.1355 3.77664 27.2665 4.41738 26.6257C5.05813 25.985 5.92718 25.625 6.83333 25.625H11.9583C12.8645 25.625 13.7335 25.985 14.3743 26.6257C15.015 27.2665 15.375 28.1355 15.375 29.0417V34.1667ZM29.0417 22.2083H34.1667C35.979 22.2083 37.7171 22.9283 38.9986 24.2098C40.2801 25.4913 41 27.2294 41 29.0417V34.1667C41 35.979 40.2801 37.7171 38.9986 38.9986C37.7171 40.2801 35.979 41 34.1667 41H29.0417C27.2294 41 25.4913 40.2801 24.2098 38.9986C22.9283 37.7171 22.2083 35.979 22.2083 34.1667V29.0417C22.2083 27.2294 22.9283 25.4913 24.2098 24.2098C25.4913 22.9283 27.2294 22.2083 29.0417 22.2083ZM36.5826 36.5826C37.2234 35.9419 37.5833 35.0728 37.5833 34.1667V29.0417C37.5833 28.1355 37.2234 27.2665 36.5826 26.6257C35.9419 25.985 35.0728 25.625 34.1667 25.625H29.0417C28.1355 25.625 27.2665 25.985 26.6257 26.6257C25.985 27.2665 25.625 28.1355 25.625 29.0417V34.1667C25.625 35.0728 25.985 35.9419 26.6257 36.5826C27.2665 37.2234 28.1355 37.5833 29.0417 37.5833H34.1667C35.0728 37.5833 35.9419 37.2234 36.5826 36.5826Z" fill="#FAFAFA"/>
</g>
<defs>
<clipPath id="clip0_201_4287">
<rect width="41" height="41" fill="white"/>
</clipPath>
</defs>
</svg>
