<svg width="126" height="97" viewBox="0 0 126 97" fill="none" xmlns="http://www.w3.org/2000/svg">
<path d="M76.7917 4.04166H20.2083C14.8507 4.04807 9.71438 6.17922 5.92597 9.96763C2.13756 13.756 0.00641759 18.8924 0 24.25L0 56.5833C0.00641759 61.9409 2.13756 67.0773 5.92597 70.8657C9.71438 74.6541 14.8507 76.7852 20.2083 76.7917H44.4583V84.875H28.2917C27.2197 84.875 26.1917 85.3008 25.4338 86.0588C24.6758 86.8167 24.25 87.8447 24.25 88.9167C24.25 89.9886 24.6758 91.0166 25.4338 91.7746C26.1917 92.5325 27.2197 92.9583 28.2917 92.9583H68.7083C69.7803 92.9583 70.8083 92.5325 71.5662 91.7746C72.3242 91.0166 72.75 89.9886 72.75 88.9167C72.75 87.8447 72.3242 86.8167 71.5662 86.0588C70.8083 85.3008 69.7803 84.875 68.7083 84.875H52.5417V76.7917H76.7917C82.1493 76.7852 87.2856 74.6541 91.074 70.8657C94.8624 67.0773 96.9936 61.9409 97 56.5833V24.25C96.9936 18.8924 94.8624 13.756 91.074 9.96763C87.2856 6.17922 82.1493 4.04807 76.7917 4.04166ZM20.2083 12.125H76.7917C80.0074 12.125 83.0915 13.4024 85.3653 15.6763C87.6392 17.9502 88.9167 21.0342 88.9167 24.25V52.5417H8.08333V24.25C8.08333 21.0342 9.36079 17.9502 11.6347 15.6763C13.9085 13.4024 16.9926 12.125 20.2083 12.125ZM76.7917 68.7083H20.2083C17.7095 68.698 15.275 67.9158 13.2377 66.4689C11.2004 65.022 9.65992 62.9809 8.827 60.625H88.173C87.3401 62.9809 85.7996 65.022 83.7623 66.4689C81.725 67.9158 79.2905 68.698 76.7917 68.7083Z" fill="#FAFAFA"/>
<path fill-rule="evenodd" clip-rule="evenodd" d="M108.125 59.625V62.875C111.141 62.8784 114.032 64.078 116.165 66.2105C118.297 68.3429 119.497 71.2342 119.5 74.25V84C119.5 87.4478 118.13 90.7544 115.692 93.1924C113.254 95.6304 109.948 97 106.5 97C103.052 97 99.7456 95.6304 97.3076 93.1924C94.8696 90.7544 93.5 87.4478 93.5 84V74.25C93.5034 71.2342 94.703 68.3429 96.8355 66.2105C98.9679 64.078 101.859 62.8784 104.875 62.875V59.625C104.875 59.194 105.046 58.7807 105.351 58.476C105.656 58.1712 106.069 58 106.5 58C106.931 58 107.344 58.1712 107.649 58.476C107.954 58.7807 108.125 59.194 108.125 59.625ZM113.394 90.8943C115.223 89.0658 116.25 86.5859 116.25 84V74.25C116.247 72.0959 115.391 70.0308 113.867 68.5076C112.344 66.9844 110.279 66.1276 108.125 66.125H104.875C102.721 66.1276 100.656 66.9844 99.1326 68.5076C97.6094 70.0308 96.7526 72.0959 96.75 74.25V84C96.75 86.5859 97.7772 89.0658 99.6057 90.8943C101.434 92.7228 103.914 93.75 106.5 93.75C109.086 93.75 111.566 92.7228 113.394 90.8943ZM105.351 69.851C105.656 69.5462 106.069 69.375 106.5 69.375C106.931 69.375 107.344 69.5462 107.649 69.851C107.954 70.1557 108.125 70.569 108.125 71V74.25C108.125 74.681 107.954 75.0943 107.649 75.399C107.344 75.7038 106.931 75.875 106.5 75.875C106.069 75.875 105.656 75.7038 105.351 75.399C105.046 75.0943 104.875 74.681 104.875 74.25V71C104.875 70.569 105.046 70.1557 105.351 69.851Z" fill="#FAFAFA"/>
</svg>
