<svg width="118" height="90" viewBox="0 0 118 90" fill="none" xmlns="http://www.w3.org/2000/svg">
<path d="M108.167 60.6547V25.3333C108.159 18.8158 105.566 12.5675 100.958 7.95891C96.3493 3.35034 90.1009 0.757807 83.5834 0.75H34.4168C27.8992 0.757807 21.6509 3.35034 17.0423 7.95891C12.4338 12.5675 9.84123 18.8158 9.83342 25.3333V60.6547C6.55557 61.8092 3.79209 64.0866 2.03245 67.0834C0.272802 70.0802 -0.369454 73.6031 0.219435 77.028C0.808324 80.453 2.59035 83.5591 5.2499 85.7961C7.90944 88.033 11.2749 89.2566 14.7501 89.25H103.25C106.725 89.2566 110.091 88.033 112.75 85.7961C115.41 83.5591 117.192 80.453 117.781 77.028C118.37 73.6031 117.727 70.0802 115.968 67.0834C114.208 64.0866 111.445 61.8092 108.167 60.6547V60.6547ZM34.4168 10.5833H83.5834C87.4954 10.5833 91.2471 12.1373 94.0133 14.9035C96.7794 17.6697 98.3334 21.4214 98.3334 25.3333V59.75H77.9243C76.4943 59.7491 75.0813 60.06 73.7838 60.6612C72.4862 61.2624 71.3355 62.1394 70.4117 63.231L69.1973 64.6667H48.798L47.5885 63.231C46.6647 62.1394 45.5139 61.2624 44.2164 60.6612C42.9189 60.06 41.5059 59.7491 40.0758 59.75H19.6668V25.3333C19.6668 21.4214 21.2208 17.6697 23.9869 14.9035C26.7531 12.1373 30.5048 10.5833 34.4168 10.5833V10.5833ZM103.25 79.4167H14.7501C13.4461 79.4167 12.1955 78.8987 11.2735 77.9766C10.3514 77.0546 9.83342 75.804 9.83342 74.5C9.83342 73.196 10.3514 71.9454 11.2735 71.0234C12.1955 70.1013 13.4461 69.5833 14.7501 69.5833H40.0808L41.2903 71.019C42.2135 72.11 43.3635 72.9866 44.6601 73.5877C45.9567 74.1889 47.3688 74.5002 48.798 74.5H69.1973C70.6273 74.501 72.0403 74.19 73.3378 73.5888C74.6353 72.9876 75.7861 72.1106 76.7099 71.019L77.9243 69.5833H103.25C104.554 69.5833 105.805 70.1013 106.727 71.0234C107.649 71.9454 108.167 73.196 108.167 74.5C108.167 75.804 107.649 77.0546 106.727 77.9766C105.805 78.8987 104.554 79.4167 103.25 79.4167Z" fill="#FAFAFA"/>
</svg>
