<svg width="95" height="95" viewBox="0 0 95 95" fill="none" xmlns="http://www.w3.org/2000/svg">
<path fill-rule="evenodd" clip-rule="evenodd" d="M35.6249 0H59.3749C64.6221 0.00628527 69.6525 2.09349 73.3628 5.80379C77.0731 9.51408 79.1603 14.5445 79.1666 19.7917V75.2083C79.1603 80.4555 77.0731 85.4859 73.3628 89.1962C69.6525 92.9065 64.6221 94.9937 59.3749 95H35.6249C30.3778 94.9937 25.3473 92.9065 21.637 89.1962C17.9267 85.4859 15.8395 80.4555 15.8333 75.2083V19.7917C15.8395 14.5445 17.9267 9.51408 21.637 5.80379C25.3473 2.09349 30.3778 0.00628527 35.6249 0ZM59.3749 7.91667H35.6249C32.4755 7.91667 29.455 9.16778 27.228 11.3948C25.001 13.6218 23.7499 16.6422 23.7499 19.7917V63.3333H71.2499V19.7917C71.2499 16.6422 69.9988 13.6218 67.7718 11.3948C65.5448 9.16778 62.5244 7.91667 59.3749 7.91667ZM35.6249 87.0833H59.3749C62.5244 87.0833 65.5448 85.8322 67.7718 83.6052C69.9988 81.3782 71.2499 78.3578 71.2499 75.2083V71.25H23.7499V75.2083C23.7499 78.3578 25.001 81.3782 27.228 83.6052C29.455 85.8322 32.4755 87.0833 35.6249 87.0833ZM51.4583 79.1667C51.4583 81.3528 49.686 83.125 47.4999 83.125C45.3138 83.125 43.5416 81.3528 43.5416 79.1667C43.5416 76.9805 45.3138 75.2083 47.4999 75.2083C49.686 75.2083 51.4583 76.9805 51.4583 79.1667Z" fill="#FAFAFA"/>
</svg>
