<svg width="95" height="95" viewBox="0 0 95 95" fill="none" xmlns="http://www.w3.org/2000/svg">
<g clip-path="url(#clip0_213_633)">
<path d="M29.6875 51.4583C26.1645 51.4583 22.7207 50.4137 19.7914 48.4564C16.8622 46.4991 14.5791 43.7172 13.2309 40.4624C11.8827 37.2076 11.53 33.6261 12.2173 30.1708C12.9046 26.7155 14.601 23.5416 17.0922 21.0505C19.5833 18.5594 22.7572 16.8629 26.2125 16.1756C29.6677 15.4883 33.2492 15.8411 36.504 17.1892C39.7589 18.5374 42.5408 20.8205 44.4981 23.7497C46.4553 26.679 47.5 30.1229 47.5 33.6458C47.4948 38.3684 45.6164 42.896 42.2771 46.2354C38.9377 49.5748 34.4101 51.4531 29.6875 51.4583ZM29.6875 23.75C27.7303 23.75 25.817 24.3304 24.1897 25.4178C22.5623 26.5051 21.2939 28.0506 20.5449 29.8589C19.7959 31.6671 19.6 33.6568 19.9818 35.5764C20.3636 37.496 21.3061 39.2593 22.6901 40.6432C24.074 42.0272 25.8373 42.9697 27.7569 43.3515C29.6765 43.7334 31.6662 43.5374 33.4745 42.7884C35.2827 42.0394 36.8282 40.771 37.9156 39.1437C39.003 37.5163 39.5833 35.6031 39.5833 33.6458C39.5833 31.0213 38.5407 28.5043 36.6849 26.6484C34.8291 24.7926 32.312 23.75 29.6875 23.75ZM59.375 91.0417V89.0625C59.375 81.1889 56.2472 73.6378 50.6797 68.0703C45.1122 62.5028 37.5611 59.375 29.6875 59.375C21.8139 59.375 14.2628 62.5028 8.69527 68.0703C3.12778 73.6378 0 81.1889 0 89.0625L0 91.0417C0 92.0915 0.417038 93.0983 1.15937 93.8406C1.9017 94.583 2.90852 95 3.95833 95C5.00815 95 6.01497 94.583 6.7573 93.8406C7.49963 93.0983 7.91667 92.0915 7.91667 91.0417V89.0625C7.91667 83.2885 10.2104 77.751 14.2932 73.6682C18.376 69.5854 23.9135 67.2917 29.6875 67.2917C35.4615 67.2917 40.999 69.5854 45.0818 73.6682C49.1646 77.751 51.4583 83.2885 51.4583 89.0625V91.0417C51.4583 92.0915 51.8754 93.0983 52.6177 93.8406C53.36 94.583 54.3669 95 55.4167 95C56.4665 95 57.4733 94.583 58.2156 93.8406C58.958 93.0983 59.375 92.0915 59.375 91.0417ZM95 71.25C94.9998 65.901 93.4515 60.6664 90.5418 56.1781C87.632 51.6898 83.4854 48.1396 78.6024 45.9561C73.7194 43.7726 68.3087 43.0492 63.0236 43.8731C57.7385 44.6971 52.8048 47.0331 48.8181 50.5994C48.4253 50.9445 48.1048 51.3641 47.8751 51.8339C47.6454 52.3036 47.511 52.8142 47.4797 53.3362C47.4485 53.8581 47.5209 54.3811 47.6929 54.8749C47.865 55.3687 48.1331 55.8236 48.4819 56.2132C48.8307 56.6027 49.2532 56.9193 49.7251 57.1447C50.1969 57.3701 50.7087 57.4997 51.231 57.5261C51.7532 57.5525 52.2755 57.4752 52.7677 57.2986C53.2599 57.122 53.7122 56.8497 54.0985 56.4973C56.9464 53.9506 60.4704 52.2825 64.2453 51.6945C68.0203 51.1065 71.8847 51.6236 75.3722 53.1834C78.8598 54.7432 81.8213 57.2791 83.8994 60.4849C85.9775 63.6908 87.0833 67.4296 87.0833 71.25C87.0833 72.2998 87.5004 73.3066 88.2427 74.049C88.985 74.7913 89.9919 75.2083 91.0417 75.2083C92.0915 75.2083 93.0983 74.7913 93.8406 74.049C94.583 73.3066 95 72.2998 95 71.25ZM69.2708 35.625C65.7479 35.625 62.304 34.5803 59.3747 32.6231C56.4455 30.6658 54.1624 27.8839 52.8142 24.6291C51.466 21.3742 51.1133 17.7927 51.8006 14.3375C52.4879 10.8822 54.1844 7.70829 56.6755 5.21717C59.1666 2.72605 62.3405 1.02957 65.7958 0.34227C69.2511 -0.345029 72.8326 0.00771791 76.0874 1.3559C79.3422 2.70409 82.1241 4.98716 84.0814 7.91641C86.0387 10.8457 87.0833 14.2895 87.0833 17.8125C87.0781 22.5351 85.1997 27.0627 81.8604 30.4021C78.521 33.7414 73.9934 35.6198 69.2708 35.625ZM69.2708 7.91667C67.3136 7.91667 65.4004 8.49705 63.773 9.58442C62.1456 10.6718 60.8773 12.2173 60.1283 14.0255C59.3793 15.8338 59.1833 17.8235 59.5651 19.7431C59.947 21.6627 60.8895 23.426 62.2734 24.8099C63.6574 26.1939 65.4206 27.1364 67.3402 27.5182C69.2598 27.9 71.2496 27.7041 73.0578 26.9551C74.866 26.2061 76.4116 24.9377 77.4989 23.3103C78.5863 21.683 79.1667 19.7697 79.1667 17.8125C79.1667 15.188 78.1241 12.6709 76.2682 10.8151C74.4124 8.95927 71.8954 7.91667 69.2708 7.91667Z" fill="#FAFAFA"/>
</g>
<defs>
<clipPath id="clip0_213_633">
<rect width="95" height="95" fill="white"/>
</clipPath>
</defs>
</svg>
