<svg width="87" height="87" viewBox="0 0 87 87" fill="none" xmlns="http://www.w3.org/2000/svg">
<g clip-path="url(#clip0_538_1285)">
<path d="M83.0125 32.4619C81.8123 31.8536 80.4658 31.5938 79.1254 31.7116C77.7851 31.8295 76.5046 32.3205 75.429 33.1289L68.7844 38.0625C68.3296 33.5939 66.234 29.4527 62.9028 26.4396C59.5717 23.4265 55.2417 21.7556 50.75 21.75H50.4419L35.4996 6.81137C34.4929 5.79758 33.2948 4.99387 31.975 4.44688C30.6551 3.89989 29.2397 3.62052 27.811 3.62499H3.625C2.66359 3.62499 1.74156 4.00691 1.06174 4.68673C0.381919 5.36655 0 6.28858 0 7.24999C0 8.2114 0.381919 9.13343 1.06174 9.81325C1.74156 10.4931 2.66359 10.875 3.625 10.875H27.811C28.7719 10.8776 29.6929 11.2593 30.3739 11.9371L40.1868 21.75H18.125C13.3197 21.7557 8.7129 23.6672 5.31505 27.065C1.9172 30.4629 0.00575598 35.0697 0 39.875L0 68.875C0.00575598 73.6803 1.9172 78.2871 5.31505 81.685C8.7129 85.0828 13.3197 86.9942 18.125 87H50.75C55.2417 86.9944 59.5717 85.3235 62.9028 82.3104C66.234 79.2973 68.3296 75.1561 68.7844 70.6875L75.4181 75.632C76.4953 76.4398 77.7761 76.9318 79.117 77.0527C80.458 77.1736 81.8062 76.9187 83.0104 76.3166C84.2147 75.7145 85.2275 74.7889 85.9353 73.6435C86.6432 72.4982 87.0181 71.1784 87.0181 69.832V38.9434C87.0228 37.5966 86.6499 36.2756 85.9419 35.1299C85.2339 33.9843 84.2191 33.06 83.0125 32.4619ZM61.625 68.875C61.625 71.7592 60.4792 74.5253 58.4398 76.5648C56.4003 78.6042 53.6342 79.75 50.75 79.75H18.125C15.2408 79.75 12.4747 78.6042 10.4352 76.5648C8.39576 74.5253 7.25 71.7592 7.25 68.875V39.875C7.25 36.9908 8.39576 34.2247 10.4352 32.1852C12.4747 30.1457 15.2408 29 18.125 29H48.6874C48.7744 29 48.8614 29 48.9484 29C49.039 29 49.126 29 49.213 29H50.75C53.6342 29 56.4003 30.1457 58.4398 32.1852C60.4792 34.2247 61.625 36.9908 61.625 39.875V68.875ZM79.75 69.8066L68.875 61.7011V47.0489L79.75 38.9434V69.8066Z" fill="#FAFAFA"/>
</g>
<defs>
<clipPath id="clip0_538_1285">
<rect width="87" height="87" fill="white"/>
</clipPath>
</defs>
</svg>
