<svg width="99" height="99" viewBox="0 0 99 99" fill="none" xmlns="http://www.w3.org/2000/svg">
<g clip-path="url(#clip0_204_379)">
<path d="M49.5 0C39.7098 0 30.1395 2.90312 21.9993 8.34225C13.8591 13.7814 7.51452 21.5122 3.76799 30.5572C0.0214477 39.6021 -0.958818 49.5549 0.951151 59.157C2.86112 68.759 7.57554 77.5791 14.4982 84.5018C21.4209 91.4245 30.241 96.1389 39.8431 98.0489C49.4451 99.9588 59.3979 98.9786 68.4429 95.232C77.4878 91.4855 85.2186 85.141 90.6578 77.0007C96.0969 68.8605 99 59.2902 99 49.5C98.9858 36.3761 93.7661 23.7939 84.4861 14.5139C75.2062 5.23392 62.6239 0.0141945 49.5 0V0ZM90.75 49.5C90.7549 57.5838 88.3697 65.4886 83.8943 72.2205L78.9773 67.2994C78.5917 66.9128 78.3751 66.3892 78.375 65.8432V61.875C78.375 58.5929 77.0712 55.4453 74.7505 53.1246C72.4297 50.8038 69.2821 49.5 66 49.5H53.625C52.531 49.5 51.4818 49.0654 50.7082 48.2918C49.9346 47.5182 49.5 46.469 49.5 45.375V43.3125C49.5 42.7655 49.7173 42.2409 50.1041 41.8541C50.4909 41.4673 51.0155 41.25 51.5625 41.25C54.2976 41.25 56.9206 40.1635 58.8546 38.2295C60.7885 36.2956 61.875 33.6725 61.875 30.9375V26.8125C61.875 26.2655 62.0923 25.7409 62.4791 25.3541C62.8659 24.9673 63.3905 24.75 63.9375 24.75H69.6259C72.3583 24.7422 74.9774 23.6572 76.9148 21.7305L78.4699 20.1754C82.3605 24.0037 85.4501 28.5683 87.5585 33.603C89.6668 38.6376 90.7518 44.0417 90.75 49.5ZM8.45215 53.4724L21.4789 66.4991C22.6252 67.6529 23.9893 68.5675 25.4919 69.1899C26.9945 69.8123 28.6057 70.1302 30.2321 70.125H41.25C42.344 70.125 43.3932 70.5596 44.1668 71.3332C44.9404 72.1068 45.375 73.156 45.375 74.25V90.5396C35.8883 89.5713 27.0287 85.3511 20.2989 78.595C13.5691 71.8389 9.38349 62.9628 8.45215 53.4724ZM53.625 90.5396V74.25C53.625 70.9679 52.3212 67.8203 50.0005 65.4995C47.6797 63.1788 44.5321 61.875 41.25 61.875H30.2321C29.6898 61.8754 29.1527 61.7689 28.6515 61.5615C28.1504 61.3541 27.6951 61.0499 27.3116 60.6664L8.9224 42.2771C10.1029 35.5666 12.9308 29.2541 17.1525 23.9059C21.3742 18.5578 26.8575 14.3414 33.1105 11.635C39.3636 8.92864 46.1907 7.81694 52.9793 8.39966C59.7679 8.98238 66.3057 11.2413 72.006 14.9738L71.082 15.8978C70.6937 16.2807 70.1712 16.4968 69.6259 16.5H63.9375C61.2025 16.5 58.5795 17.5865 56.6455 19.5205C54.7115 21.4544 53.625 24.0775 53.625 26.8125V30.9375C53.625 31.4845 53.4077 32.0091 53.0209 32.3959C52.6341 32.7827 52.1095 33 51.5625 33C48.8275 33 46.2045 34.0865 44.2705 36.0205C42.3365 37.9544 41.25 40.5775 41.25 43.3125V45.375C41.25 48.6571 42.5538 51.8047 44.8746 54.1254C47.1953 56.4462 50.343 57.75 53.625 57.75H66C67.094 57.75 68.1433 58.1846 68.9168 58.9582C69.6904 59.7318 70.125 60.781 70.125 61.875V65.8432C70.1328 68.5756 71.2178 71.1947 73.1445 73.1321L78.6597 78.6472C71.9419 85.3883 63.0944 89.5911 53.625 90.5396Z" fill="#FAFAFA"/>
</g>
<defs>
<clipPath id="clip0_204_379">
<rect width="99" height="99" fill="white"/>
</clipPath>
</defs>
</svg>
